<svg xmlns="http://www.w3.org/2000/svg" version="1.1" xmlns:xlink="http://www.w3.org/1999/xlink" xmlns:svgjs="http://svgjs.com/svgjs" width="1920" height="1080" preserveAspectRatio="none" viewBox="0 0 1920 1080"><g mask="url(&quot;#SvgjsMask1014&quot;)" fill="none"><rect width="1920" height="1080" x="0" y="0" fill="#1e3266"></rect><path d="M1984 1080L0 1080 L0 646.05Q76.56 626.61, 96 703.17Q134.71 645.88, 192 684.59Q216.58 613.17, 288 637.76Q326.95 516.71, 448 555.66Q551.4 499.06, 608 602.45Q673.7 572.15, 704 637.86Q740.37 578.23, 800 614.59Q813.38 531.98, 896 545.36Q990.87 480.23, 1056 575.09Q1160.46 519.55, 1216 624.01Q1279.17 591.18, 1312 654.35Q1313.27 559.62, 1408 560.88Q1532.79 589.67, 1504 714.46Q1480.6 595.06, 1600 571.65Q1713.15 588.81, 1696 701.96Q1751.9 661.87, 1792 717.77Q1825.83 655.6, 1888 689.43Q1896.16 601.59, 1984 609.75z" fill="#182f5d"></path><path d="M2080 1080L0 1080 L0 858.77Q58.64 757.41, 160 816.05Q176.99 737.03, 256 754.02Q282.36 684.38, 352 710.74Q407.86 670.6, 448 726.45Q570.23 688.68, 608 810.92Q676.52 783.44, 704 851.97Q740 791.97, 800 827.96Q827.27 759.24, 896 786.51Q950.84 745.35, 992 800.18Q1021.43 733.61, 1088 763.03Q1094.6 673.63, 1184 680.22Q1350.1 686.32, 1344 852.41Q1345.4 693.81, 1504 695.2Q1544.47 639.67, 1600 680.15Q1748.49 668.64, 1760 817.13Q1796.35 693.48, 1920 729.82Q2020.79 670.61, 2080 771.4z" fill="#25467d"></path><path d="M1952 1080L0 1080 L0 901.43Q51.03 792.46, 160 843.49Q198.03 785.52, 256 823.55Q334.56 806.11, 352 884.66Q425.89 798.55, 512 872.44Q580.2 780.64, 672 848.85Q777.52 794.38, 832 899.9Q925.53 897.43, 928 990.97Q952.95 919.92, 1024 944.87Q1062.48 823.36, 1184 861.84Q1211.74 793.59, 1280 821.33Q1396.68 778.02, 1440 894.7Q1509.91 804.62, 1600 874.53Q1639.85 818.38, 1696 858.22Q1815.16 817.38, 1856 936.54Q1870.36 854.9, 1952 869.26z" fill="#356cb1"></path><path d="M1984 1080L0 1080 L0 1093.15Q36.84 1033.99, 96 1070.82Q136.6 951.42, 256 992.02Q309.93 949.95, 352 1003.88Q404.75 896.63, 512 949.37Q565.89 907.26, 608 961.16Q669.37 926.53, 704 987.9Q823.14 947.04, 864 1066.17Q969.93 1012.11, 1024 1118.04Q1093.29 1027.33, 1184 1096.62Q1244.14 996.76, 1344 1056.89Q1370.23 987.13, 1440 1013.36Q1472.4 949.76, 1536 982.16Q1606.9 957.06, 1632 1027.96Q1639.53 939.49, 1728 947.02Q1842.11 965.13, 1824 1079.23Q1920.67 1015.9, 1984 1112.58z" fill="rgba(63, 133, 221, 1)"></path></g><defs><mask id="SvgjsMask1014"><rect width="1920" height="1080" fill="#ffffff"></rect></mask></defs></svg>